<svg xmlns="http://www.w3.org/2000/svg" xmlns:xlink="http://www.w3.org/1999/xlink" version="1.1" width="141.73pt" height="100.63pt" viewBox="0 0 141.73 100.63">
<defs>
<clipPath id="clip_0">
<path transform="matrix(1,0,0,-1,0,100.63)" d="M2 1H139.964V99.155H2Z"/>
</clipPath>
<clipPath id="clip_1">
<path transform="matrix(1,0,0,-1,0,100.63)" d="M2 1H139.964V99.155H2Z"/>
</clipPath>
</defs>
<g id="layer_1" data-name="Ebene 1">
<g clip-path="url(#clip_0)">
<path transform="matrix(1,0,0,-1,2,68.449298)" d="M0 0C0 0 0-31.181 31.181-31.181H125.965C125.965-31.181 137.965-31.181 137.965-19.181V66.975H12C12 66.975 0 66.975 0 54.975Z" fill="#6d3d32"/>
<path transform="matrix(1,0,0,-1,39.8252,31.596299)" d="M0 0V13.392C0 17.064-2.16 20.052-6.84 20.052-11.52 20.052-13.68 17.064-13.68 13.392V0C-13.68-3.672-11.52-6.66-6.84-6.66-2.16-6.66 0-3.672 0 0M-4.464 .108C-4.464-1.836-5.04-2.772-6.84-2.772-8.64-2.772-9.216-1.836-9.216 .108V13.284C-9.216 15.228-8.64 16.164-6.84 16.164-5.04 16.164-4.464 15.228-4.464 13.284Z" fill="#ffffff"/>
<path transform="matrix(1,0,0,-1,22.0449,31.596299)" d="M0 0C0-3.672-2.16-6.66-6.624-6.66-11.304-6.66-13.464-3.672-13.464 0V13.392C-13.464 17.064-11.304 20.052-6.624 20.052-2.16 20.052 0 16.812 0 12.924V11.016H-4.464V13.032C-4.464 15.228-5.472 16.164-6.624 16.164-8.424 16.164-9 15.228-9 13.284V.108C-9-1.836-8.424-2.772-6.624-2.772-5.004-2.772-4.464-1.836-4.464-.144V2.988H0Z" fill="#ffffff"/>
</g>
<path transform="matrix(1,0,0,-1,57.5552,37.8966)" d="M0 0H-3.888L-9.576 16.236H-9.648V0H-13.68V25.992H-9.54L-4.104 11.124H-4.032V25.992H0Z" fill="#ffffff"/>
<path transform="matrix(1,0,0,-1,83.9795,15.792595)" d="M0 0H-7.992V-6.696H-2.017V-10.584H-7.992V-22.104H-12.457V3.888H0Z" fill="#ffffff"/>
<path transform="matrix(1,0,0,-1,100.0342,37.8966)" d="M0 0H-12.456V25.992H-.504V22.104H-7.991V15.408H-2.231V11.52H-7.991V3.888H0Z" fill="#ffffff"/>
<g clip-path="url(#clip_1)">
<path transform="matrix(1,0,0,-1,117.458,19.572396)" d="M0 0C0 5.544-2.556 7.668-7.561 7.668H-13.824V-18.324H-9.36V-7.668C-8.568-7.668-7.632-7.632-7.056-7.56L-3.888-18.324H.647L-3.132-6.552C-1.62-5.868 0-4.176 0 0M-4.464 0C-4.464-3.096-5.364-3.996-7.776-3.996H-9.36V3.996H-7.776C-5.364 3.996-4.464 3.096-4.464 0" fill="#ffffff"/>
</g>
<path transform="matrix(1,0,0,-1,134.1768,37.8966)" d="M0 0H-12.456V25.992H-.504V22.104H-7.992V15.408H-2.233V11.52H-7.992V3.888H0Z" fill="#ffffff"/>
<path transform="matrix(1,0,0,-1,0,100.63)" d="M66.771 88.726H62.307004V62.733999H66.771Z" fill="#ffffff"/>
</g>
</svg>
